<?xml version="1.0" standalone="no"?>
<!DOCTYPE svg PUBLIC "-//W3C//DTD SVG 20010904//EN"
 "http://www.w3.org/TR/2001/REC-SVG-20010904/DTD/svg10.dtd">
<svg version="1.0" xmlns="http://www.w3.org/2000/svg"
 width="200.000000pt" height="200.000000pt" viewBox="0 0 200.000000 200.000000"
 preserveAspectRatio="xMidYMid meet">
<metadata>
Created by potrace 1.15, written by Peter Selinger 2001-2017
</metadata>
<g transform="translate(0.000000,200.000000) scale(0.100000,-0.100000)"
fill="#000000" stroke="none">
<path d="M830 1974 c-139 -25 -288 -86 -395 -162 -72 -50 -189 -167 -239 -237
-216 -301 -244 -691 -74 -1028 46 -92 83 -143 167 -231 151 -156 309 -243 520
-286 410 -83 833 107 1046 472 94 160 140 345 132 533 -6 143 -32 254 -62 265
-11 4 -30 4 -42 -1 -28 -10 -29 -32 -7 -142 21 -102 14 -279 -15 -385 -83
-308 -335 -557 -646 -638 -99 -26 -321 -26 -425 0 -95 24 -224 83 -304 140
-82 59 -202 187 -249 267 -167 284 -167 631 0 919 50 85 218 253 303 303 306
178 687 164 970 -34 60 -42 60 -42 60 -91 0 -43 4 -54 34 -84 33 -33 52 -39
105 -34 92 8 130 133 61 202 -23 23 -37 28 -74 28 -39 0 -56 7 -108 46 -214
158 -500 225 -758 178z"/>
<path d="M877 1493 c-3 -10 -19 -52 -35 -93 -16 -41 -59 -154 -96 -250 -37
-96 -78 -202 -91 -235 -72 -183 -115 -296 -115 -300 0 -3 48 -5 108 -5 l107 0
28 75 28 75 160 0 c132 0 159 2 159 14 0 8 -12 47 -26 85 l-26 71 -104 0 c-58
0 -104 4 -104 9 0 15 121 345 129 354 5 5 33 -63 64 -150 31 -87 86 -241 122
-342 36 -101 67 -186 69 -188 2 -2 51 -2 108 -1 l105 3 -54 140 c-30 77 -63
163 -73 190 -10 28 -32 84 -48 125 -16 41 -45 118 -65 170 -20 52 -51 133 -70
180 l-33 85 -121 3 c-108 2 -121 1 -126 -15z"/>
</g>
</svg>
