<?xml version="1.0" standalone="no"?>
<!DOCTYPE svg PUBLIC "-//W3C//DTD SVG 20010904//EN"
 "http://www.w3.org/TR/2001/REC-SVG-20010904/DTD/svg10.dtd">
<svg version="1.0" xmlns="http://www.w3.org/2000/svg"
 width="225.000000pt" height="225.000000pt" viewBox="0 0 225.000000 225.000000"
 preserveAspectRatio="xMidYMid meet">
<metadata>
Created by potrace 1.15, written by Peter Selinger 2001-2017
</metadata>
<g transform="translate(0.000000,225.000000) scale(0.100000,-0.100000)"
fill="#000000" stroke="none">
<path d="M1045 2206 c-68 -31 -119 -117 -113 -193 l3 -43 -224 -129 -224 -129
-40 26 c-56 37 -156 39 -209 3 -81 -56 -109 -155 -70 -243 20 -45 67 -90 110
-103 l22 -6 0 -264 0 -264 -22 -6 c-43 -13 -90 -58 -110 -103 -39 -88 -11
-187 70 -243 52 -36 153 -34 209 3 l40 26 224 -129 224 -129 -3 -43 c-6 -77
46 -163 115 -193 41 -18 114 -18 156 0 71 29 124 123 114 200 l-6 41 222 128
c199 115 224 127 242 116 87 -56 144 -63 221 -24 63 32 96 80 102 149 7 89
-47 177 -125 201 l-23 6 0 264 0 264 23 6 c42 13 89 58 109 103 39 88 11 187
-70 243 -53 36 -153 34 -209 -3 l-40 -27 -224 129 -224 129 3 44 c6 77 -45
163 -115 193 -41 18 -119 17 -158 0z m-346 -826 c-160 -278 -295 -509 -300
-515 -5 -5 -9 96 -9 258 l0 267 33 14 c39 16 82 61 96 99 6 16 11 52 11 80 l0
52 228 131 c125 73 228 129 230 125 1 -4 -129 -234 -289 -511z m804 380 l217
-125 0 -52 c0 -28 5 -64 11 -80 14 -38 57 -83 97 -99 l32 -14 0 -267 c0 -158
-4 -263 -9 -258 -8 9 -550 946 -580 1003 -10 20 -10 23 1 20 8 -1 111 -59 231
-128z m-124 -258 c107 -185 240 -415 295 -511 83 -145 98 -176 88 -190 -7 -9
-19 -31 -27 -48 l-15 -33 -595 0 -595 0 -15 33 c-8 17 -20 39 -27 48 -9 14 1
39 63 146 41 71 173 301 294 511 l220 382 60 0 60 0 194 -338z m339 -884 c-3
-7 -104 -71 -226 -141 l-222 -129 -30 26 c-54 45 -165 48 -222 6 -16 -11 -35
-20 -42 -18 -23 6 -446 252 -446 260 0 5 268 8 596 8 472 0 595 -3 592 -12z"/>
</g>
</svg>
